<svg width="60" height="40" viewBox="0 0 60 40" fill="none" xmlns="http://www.w3.org/2000/svg">
<rect width="60" height="40" fill="#3CA6F9" fill-opacity="0.15"/>
<path d="M30 33C37.1797 33 43 27.1797 43 20C43 12.8203 37.1797 7 30 7C22.8203 7 17 12.8203 17 20C17 27.1797 22.8203 33 30 33Z" fill="url(#paint0_linear)" fill-opacity="0.2"/>
<path d="M18 12C18 10.8954 18.8954 10 20 10H40C41.1046 10 42 10.8954 42 12V28C42 29.1046 41.1046 30 40 30H20C18.8954 30 18 29.1046 18 28V12Z" fill="url(#paint1_linear)"/>
<rect x="20.6667" y="26.1905" width="18.6667" height="0.952381" rx="0.47619" fill="white" fill-opacity="0.5"/>
<rect opacity="0.25" x="20.6667" y="15.7143" width="18.6667" height="8.57143" rx="1" fill="white"/>
<path d="M23.6519 19.885L20.6667 23V23.2857C20.6667 23.838 21.1145 24.2857 21.6667 24.2857H38.3334C38.8857 24.2857 39.3334 23.838 39.3334 23.2857V23L34.8832 17.9936C34.4107 17.462 33.5823 17.4557 33.1017 17.9799L28.5 23L25.3668 19.8668C24.8911 19.3911 24.1173 19.3993 23.6519 19.885Z" fill="white" fill-opacity="0.6"/>
<ellipse cx="27.1342" cy="18.2143" rx="0.715" ry="0.714286" fill="white" fill-opacity="0.5"/>
<path d="M18 13.8095H42V12C42 10.8954 41.1046 9.99999 40 9.99999H20C18.8954 9.99999 18 10.8954 18 12V13.8095Z" fill="black" fill-opacity="0.15"/>
<circle opacity="0.6" cx="20.3777" cy="12.0286" r="0.6" fill="white"/>
<circle opacity="0.6" cx="22.5777" cy="12.0286" r="0.6" fill="white"/>
<circle opacity="0.6" cx="24.7777" cy="12.0286" r="0.6" fill="white"/>
<defs>
<linearGradient id="paint0_linear" x1="11.6152" y1="20" x2="30" y2="38.3848" gradientUnits="userSpaceOnUse">
<stop stop-color="#486EF0"/>
<stop offset="1" stop-color="#3CA6F9"/>
</linearGradient>
<linearGradient id="paint1_linear" x1="20.25" y1="12.9" x2="33.5191" y2="27.3208" gradientUnits="userSpaceOnUse">
<stop stop-color="#3CA6F9"/>
<stop offset="1" stop-color="#486EF0"/>
</linearGradient>
</defs>
</svg>
