<svg height="622" viewBox="0 0 826 622" width="826" xmlns="http://www.w3.org/2000/svg" xmlns:xlink="http://www.w3.org/1999/xlink"><defs><linearGradient id="a" x1="14.644661%" x2="85.355339%" y1="14.644661%" y2="85.355339%"><stop offset="0" stop-color="#486ef0"/><stop offset="1" stop-color="#3ca6f9"/></linearGradient><path id="b" d="m142.015621 0h42.799297l-68.748505 25.0224097c8.272891-8.6670014 16.927083-17.01734552 25.949208-25.0224097zm168.522887 0h126.822079l-403.4566546 146.846214c9.0279599-19.940288 19.5449804-39.204536 31.4668712-57.6124674zm252.545665 0h129.569565l-691.12677795 251.549575c3.08113484-17.497151 7.22224061-34.75038 12.37915375-51.665118zm262.915827 137.406002v.898142l-817.15687375 297.420778c-3.69539457-14.259747-6.63585668-28.568925-8.84312625-42.880982v-2.059846l804.548709-292.8317816c7.758486 12.6639536 14.925698 25.8229966 21.451291 39.4536896zm0 46.657786v46.159463l-787.4118202 286.594464c-6.2319724-12.914382-11.8869521-26.254539-16.9218538-40.000411zm0 91.919107v46.795493l-740.8617284 269.651616c-9.1604883-11.938964-17.7516652-24.425615-25.7189761-37.43455zm0 92.555137v48.523433l-563.063998 204.938535h-133.317036zm0 94.283077v46.795493l-308.770849 112.383398h-128.569547zm-72.467086 159.178891h-110.580174l154.333457-56.172785c-12.985623 19.806053-27.605375 38.605955-43.753283 56.172785zm-753.532914-276.97555v-47.159463l748.71385-272.509555c10.834543 11.3637797 21.09911 23.3652735 30.729801 35.9747299z"/><linearGradient id="c" x1="85.355339%" x2="14.644661%" y1="14.644661%" y2="85.355339%"><stop offset="0" stop-color="#fff"/><stop offset="1"/></linearGradient><mask id="d" fill="#fff"><use fill="#fff" fill-rule="evenodd" xlink:href="#b"/></mask></defs><g fill="none" fill-rule="evenodd"><use fill="url(#a)" xlink:href="#b"/><path d="m0 0h826v622h-826z" fill="url(#a)" mask="url(#d)"/><path d="m393.110676 761.458508c-29.679193-2.647111-58.858525-8.322417-87.099569-16.821783l491.27509-178.80951c-16.170608 24.663885-34.875256 47.767535-55.909307 68.872757zm-148.24411-40.326634c-17.53529-8.289828-34.52172-17.740473-50.833787-28.293501l655.738458-238.669287c-5.712415 18.569291-12.650018 36.727572-20.754231 54.349416l-584.150445 212.613374zm-92.501796-58.887237c-13.084234-10.854769-25.572303-22.506908-37.381227-34.917779l753.232929-274.154366c-1.068606 17.09791-3.145172 34.051141-6.190965 50.77676zm-67.2264984-69.814633c-9.1604883-11.938964-17.7516652-24.425615-25.7189761-37.43455l804.8681295-292.948042c2.258668 15.086712 3.703709 30.174343 4.360586 45.208369zm-46.5500918-75.612289c-6.2319724-12.914382-11.8869521-26.254539-16.9218538-40.000411l820.332782-298.576715-10.587921-29.090076c4.030698 9.098453 7.780236 18.396204 11.234488 27.886684 5.112936 14.047675 9.458851 28.187735 13.059133 42.374388zm-29.74505355-81.092793c-3.86339071-14.908009-6.90164886-29.870045-9.13961614-44.832914l804.84519889-292.9396956c7.903564 12.9007606 15.193535 26.3152996 21.81669 40.2188376zm-13.44829098-89.024329c-.72766461-15.849893-.57896203-31.641507.41628287-47.310977l752.90273186-274.034184c10.834543 11.3637797 21.09911 23.3652735 30.729801 35.9747299zm6.13212478-95.151018c3.08113484-17.497151 7.22224061-34.75038 12.37915375-51.665118l656.9854942-239.1231522c14.822997 9.6426335 29.085429 20.1975219 42.692668 31.62060236zm32.37697205-104.703361c9.0279602-19.940288 19.5449807-39.204536 31.4668715-57.6124674l494.9716474-180.1549463c20.965088 6.4380501 41.404413 14.4351094 61.137601 23.9071944zm82.1624809-121.8238043c44.988023-47.1311926 101.251809-84.8982303 166.641794-108.6982387 65.389986-23.800008 132.766731-31.034444 197.524902-23.847599z" fill="url(#c)" mask="url(#d)" opacity=".1"/></g></svg>