<svg fill="none" height="117" viewBox="0 0 588 117" width="588" xmlns="http://www.w3.org/2000/svg" xmlns:xlink="http://www.w3.org/1999/xlink"><linearGradient id="a" gradientUnits="userSpaceOnUse" x1="45.4103" x2="109.835" y1="59" y2="148.27"><stop offset="0" stop-color="#fff500"/><stop offset="1" stop-color="#faae1b"/></linearGradient><linearGradient id="b" gradientUnits="userSpaceOnUse" x1="-27.5496" x2="36.8753" y1="59" y2="148.27"><stop offset="0" stop-color="#3ca6f9"/><stop offset="1" stop-color="#486ef0"/></linearGradient><linearGradient id="c" gradientUnits="userSpaceOnUse" x1="102.564" x2="102.564" y1="40.6855" y2="83.7864"><stop offset="0" stop-color="#fff" stop-opacity="0"/><stop offset="1" stop-color="#fff"/></linearGradient><path d="m319.856 41.352-18.72 51.648h-14.4l-11.616-32.064-12 32.064h-14.4l-18.624-51.648h14.112l12.192 34.944 12.672-34.944h12.672l12.288 34.944 12.576-34.944zm54.228 26.016c0 .192-.096 1.536-.288 4.032h-39.072c.704 3.2 2.368 5.728 4.992 7.584s5.888 2.784 9.792 2.784c2.688 0 5.056-.384 7.104-1.152 2.112-.832 4.064-2.112 5.856-3.84l7.968 8.64c-4.864 5.568-11.968 8.352-21.312 8.352-5.824 0-10.976-1.12-15.456-3.36-4.48-2.304-7.936-5.472-10.368-9.504s-3.648-8.608-3.648-13.728c0-5.056 1.184-9.6 3.552-13.632 2.432-4.096 5.728-7.264 9.888-9.504 4.224-2.304 8.928-3.456 14.112-3.456 5.056 0 9.632 1.088 13.728 3.264s7.296 5.312 9.6 9.408c2.368 4.032 3.552 8.736 3.552 14.112zm-26.784-15.456c-3.392 0-6.24.96-8.544 2.88s-3.712 4.544-4.224 7.872h25.44c-.512-3.264-1.92-5.856-4.224-7.776-2.304-1.984-5.12-2.976-8.448-2.976zm87.443-30.144v71.232h-14.304v-5.952c-3.712 4.48-9.088 6.72-16.128 6.72-4.864 0-9.28-1.088-13.248-3.264-3.904-2.176-6.976-5.28-9.216-9.312s-3.36-8.704-3.36-14.016 1.12-9.984 3.36-14.016 5.312-7.136 9.216-9.312c3.968-2.176 8.384-3.264 13.248-3.264 6.592 0 11.744 2.08 15.456 6.24v-25.056zm-27.84 59.712c3.776 0 6.912-1.28 9.408-3.84 2.496-2.624 3.744-6.112 3.744-10.464s-1.248-7.808-3.744-10.368c-2.496-2.624-5.632-3.936-9.408-3.936-3.84 0-7.008 1.312-9.504 3.936-2.496 2.56-3.744 6.016-3.744 10.368s1.248 7.84 3.744 10.464c2.496 2.56 5.664 3.84 9.504 3.84zm90.372-14.112c0 .192-.096 1.536-.288 4.032h-39.072c.704 3.2 2.368 5.728 4.992 7.584s5.888 2.784 9.792 2.784c2.688 0 5.056-.384 7.104-1.152 2.112-.832 4.064-2.112 5.856-3.84l7.968 8.64c-4.864 5.568-11.968 8.352-21.312 8.352-5.824 0-10.976-1.12-15.456-3.36-4.48-2.304-7.936-5.472-10.368-9.504s-3.648-8.608-3.648-13.728c0-5.056 1.184-9.6 3.552-13.632 2.432-4.096 5.728-7.264 9.888-9.504 4.224-2.304 8.928-3.456 14.112-3.456 5.056 0 9.632 1.088 13.728 3.264s7.296 5.312 9.6 9.408c2.368 4.032 3.552 8.736 3.552 14.112zm-26.784-15.456c-3.392 0-6.24.96-8.544 2.88s-3.712 4.544-4.224 7.872h25.44c-.512-3.264-1.92-5.856-4.224-7.776-2.304-1.984-5.12-2.976-8.448-2.976zm116.841-10.56-18.72 51.648h-14.4l-11.616-32.064-12 32.064h-14.4l-18.624-51.648h14.112l12.192 34.944 12.672-34.944h12.672l12.288 34.944 12.576-34.944z" fill="#000"/><path d="m196.919 62.647.001.0014-35.489 35.4891c-5.804 5.8035-13.388 8.7435-20.995 8.8185-8.241.445-16.63-2.481-22.925-8.776l-35.4895-35.4891.0013-.0013c-.0813-.0795-.1622-.1596-.2428-.2402-11.7601-11.76-11.7601-30.8268 0-42.5868 11.76-11.76009 30.827-11.76009 42.587 0 .08.0805.161.1615.24.2427l.001-.0013 14.841 14.8411 14.884-14.8836.001.0013c.08-.0812.16-.1622.24-.2428 11.761-11.76001 30.827-11.76001 42.587 0 11.76 11.7601 11.76 30.8269 0 42.5869-.08.0806-.161.1607-.242.2401z" fill="url(#a)"/><path d="m123.959 62.647.001.0014-35.4892 35.4891c-5.804 5.8035-13.3878 8.7435-20.9946 8.8185-8.2412.445-16.6304-2.481-22.9256-8.776l-35.48912-35.4891.00134-.0014c-.08127-.0794-.1622-.1595-.24279-.2401-11.76004-11.76-11.76004-30.8268 0-42.5868 11.76007-11.76009 30.82687-11.76009 42.58687 0 .0806.0805.1607.1615.2401.2427l.0014-.0013 14.841 14.8411 14.8836-14.8836.0014.0013c.0795-.0812.1595-.1622.2401-.2428 11.76-11.76001 30.8265-11.76001 42.5865 0 11.76 11.7601 11.76 30.8269 0 42.5869-.08.0806-.161.1607-.242.2401z" fill="url(#b)"/><path d="m123.96 62.6484-.001-.0014c.081-.0795.162-.1595.242-.2401 11.76-11.76 11.76-30.8268 0-42.5869-3.929-3.9297-8.675-6.5463-13.691-7.8497-9.952-2.52559-20.9429.1052-28.73 7.8922-11.7601 11.7601-11.7601 30.8269 0 42.5869.0806.0806.1615.1607.2428.2402l-.0013.0013 20.9475 20.9479z" fill="url(#c)" opacity=".4"/></svg>