<svg xmlns="http://www.w3.org/2000/svg" viewBox="0 0 982.41 190.81"><defs><style>.cls-1{fill:#f495a9;}.cls-2{fill:#fff;}</style></defs><title>logo invedo svg</title><g id="Layer_2" data-name="Layer 2"><g id="Layer_1-2" data-name="Layer 1"><path class="cls-1" d="M522,10.19V52.57h61.88a22.44,22.44,0,0,0,12.63-3.45,21.28,21.28,0,0,0,9.22-22.2,21,21,0,0,0-16.91-16.38,28,28,0,0,0-4.93-.34Z"/><path class="cls-1" d="M522,144.75v42.38h61.88a22.45,22.45,0,0,0,12.63-3.46,21.27,21.27,0,0,0,9.22-22.19,21,21,0,0,0-16.91-16.39,28,28,0,0,0-4.93-.33Z"/><path class="cls-1" d="M470,119.85h81.72a22.46,22.46,0,0,0,12.63-3.45,21.3,21.3,0,0,0,9.22-22.2,21,21,0,0,0-16.92-16.38,28,28,0,0,0-4.93-.34H470Z"/><path class="cls-1" d="M522.79,10.2V52.55c-4.08,0-8.17.06-12.25.08a25.1,25.1,0,0,0-4.58.43C495.79,55,488.73,61,484.32,70.16c-1.95,4.08-2.42,8.49-2.42,13q0,13.09,0,26.19H439.48q0-14.79,0-29.56a58.79,58.79,0,0,1,1.61-13.34,70.89,70.89,0,0,1,29.32-43.48,68.77,68.77,0,0,1,39.9-12.71C514.49,10.19,518.63,10.19,522.79,10.2Z"/><path class="cls-1" d="M522.79,187.12V144.77c-4.08,0-8.17-.06-12.25-.08a24.25,24.25,0,0,1-4.58-.43c-10.17-1.95-17.23-7.9-21.64-17.1-1.95-4.08-2.42-8.49-2.42-13q0-13.1,0-26.19H439.48q0,14.79,0,29.56a58.79,58.79,0,0,0,1.61,13.34,70.86,70.86,0,0,0,29.32,43.48,68.7,68.7,0,0,0,39.9,12.71C514.49,187.13,518.63,187.14,522.79,187.12Z"/><path class="cls-1" d="M711.79,10.19V52.57H649.91a22.47,22.47,0,0,1-12.64-3.45,21.3,21.3,0,0,1-9.22-22.2A21,21,0,0,1,645,10.54a28,28,0,0,1,4.93-.34Z"/><path class="cls-1" d="M711.79,144.75v42.38H649.91a22.48,22.48,0,0,1-12.64-3.46,21.28,21.28,0,0,1-9.22-22.19A21,21,0,0,1,645,145.09a28,28,0,0,1,4.93-.33Z"/><path class="cls-1" d="M627.63,114.18V32.47a22.35,22.35,0,0,1,3.46-12.63,21.27,21.27,0,0,1,22.19-9.22,21,21,0,0,1,16.39,16.91,28,28,0,0,1,.33,4.93q0,29.46,0,58.93h0V106h0v8.22Z"/><path class="cls-1" d="M627.63,83.14v81.71a22.4,22.4,0,0,0,3.46,12.64,21.26,21.26,0,0,0,22.19,9.21,21,21,0,0,0,16.39-16.91,28,28,0,0,0,.33-4.93q0-29.46,0-58.93h0V91.37h0V83.14Z"/><path class="cls-1" d="M711,10.2V52.55c4.08,0,8.16.06,12.24.08a25.21,25.21,0,0,1,4.59.43C738,55,745,61,749.42,70.16c2,4.08,2.43,8.49,2.43,13q0,13.09,0,26.19h42.42q0-14.79,0-29.56a58.78,58.78,0,0,0-1.6-13.34,71,71,0,0,0-29.32-43.48,68.77,68.77,0,0,0-39.9-12.71Q717.19,10.17,711,10.2Z"/><path class="cls-1" d="M711,187.12V144.77c4.08,0,8.16-.06,12.24-.08a24.35,24.35,0,0,0,4.59-.43c10.16-1.95,17.22-7.9,21.63-17.1,2-4.08,2.43-8.49,2.43-13q0-13.1,0-26.19h42.42q0,14.79,0,29.56a58.78,58.78,0,0,1-1.6,13.34,70.94,70.94,0,0,1-29.32,43.48,68.7,68.7,0,0,1-39.9,12.71Q717.19,187.15,711,187.12Z"/><path class="cls-1" d="M899.08,10.2V52.55c-4.08,0-8.16.06-12.24.08a25.1,25.1,0,0,0-4.58.43C872.09,55,865,61,860.62,70.16c-2,4.08-2.42,8.49-2.42,13v26.19H815.78q0-14.79,0-29.56a58.78,58.78,0,0,1,1.6-13.34,71,71,0,0,1,29.32-43.48,68.79,68.79,0,0,1,39.9-12.71Q892.86,10.17,899.08,10.2Z"/><path class="cls-1" d="M899.08,187.12V144.77c-4.08,0-8.16-.06-12.24-.08a24.25,24.25,0,0,1-4.58-.43c-10.17-1.95-17.23-7.9-21.64-17.1-2-4.08-2.42-8.49-2.42-13V88H815.78q0,14.79,0,29.56a58.78,58.78,0,0,0,1.6,13.34,70.94,70.94,0,0,0,29.32,43.48,68.72,68.72,0,0,0,39.9,12.71Q892.86,187.15,899.08,187.12Z"/><path class="cls-1" d="M899.11,10.2V52.55c4.08,0,8.16.06,12.24.08a25.1,25.1,0,0,1,4.58.43C926.1,55,933.16,61,937.57,70.16c2,4.08,2.42,8.49,2.42,13v26.19h42.42q0-14.79,0-29.56a58.78,58.78,0,0,0-1.6-13.34,71,71,0,0,0-29.32-43.48,68.77,68.77,0,0,0-39.9-12.71Q905.34,10.17,899.11,10.2Z"/><path class="cls-1" d="M899.11,187.12V144.77c4.08,0,8.16-.06,12.24-.08a24.25,24.25,0,0,0,4.58-.43c10.17-1.95,17.23-7.9,21.64-17.1,2-4.08,2.42-8.49,2.42-13V88h42.42q0,14.79,0,29.56a58.78,58.78,0,0,1-1.6,13.34,70.94,70.94,0,0,1-29.32,43.48,68.7,68.7,0,0,1-39.9,12.71Q905.34,187.15,899.11,187.12Z"/><path class="cls-1" d="M239.28,122.19c0-13.54,0-27.07,0-40.6a68.7,68.7,0,0,0-11.78-39.1,71.15,71.15,0,0,0-42.83-30.31,62.23,62.23,0,0,0-15.26-1.95c-8.63,0-17.27-.06-25.9,0a68.77,68.77,0,0,0-39.9,12.71A71,71,0,0,0,74.3,66.41a59.43,59.43,0,0,0-1.61,13.34q-.06,43.26,0,86.52c0,9.86,7.35,18.39,17,20.42a21.3,21.3,0,0,0,25.25-17.77,24.09,24.09,0,0,0,.15-3.71q0-41,0-82.09c0-4.47.47-8.88,2.42-13C121.91,61,129,55,139.14,53.06a25.21,25.21,0,0,1,4.59-.43c8.16,0,16.32-.18,24.48,0,11.71.27,20.1,6.1,25.66,16.18a26.55,26.55,0,0,1,3,13q0,41.67,0,83.33a22,22,0,0,0,2.59,10.9A21.22,21.22,0,0,0,239,169.68a22.91,22.91,0,0,0,.32-3.88Q239.3,144,239.28,122.19Z"/><path class="cls-1" d="M0,86V28.8A22.37,22.37,0,0,1,3.46,16.17,21.27,21.27,0,0,1,25.65,7,21,21,0,0,1,42,23.86a28,28,0,0,1,.33,4.94c0,19.64,0,49,0,49h0V86Z"/><path class="cls-1" d="M0,79.46v85.39a22.4,22.4,0,0,0,3.46,12.64,21.26,21.26,0,0,0,22.19,9.21A21,21,0,0,0,42,169.79a28,28,0,0,0,.33-4.93c0-19.64,0-49,0-49h0V79.46Z"/><path class="cls-1" d="M396,10.21C384.46,10.62,375.5,20.43,375.5,32v32.9L338.08,92.93a5.7,5.7,0,0,1-6.86,0L293.81,64.85V32c0-11.52-9-21.33-20.48-21.74a21.24,21.24,0,0,0-22,21.23V122a21.25,21.25,0,0,0,8.49,17l64.31,48.27a17.57,17.57,0,0,0,21.09,0L409.5,139a21.26,21.26,0,0,0,8.5-17V31.44A21.25,21.25,0,0,0,396,10.21Z"/><path class="cls-1" d="M373.12,108.47V5.74a2.87,2.87,0,0,0-2.87-2.87h-71.2a2.88,2.88,0,0,0-2.87,2.87V108.47a2.87,2.87,0,0,0,2.87,2.87h71.2A2.86,2.86,0,0,0,373.12,108.47Zm-2.87,0h-71.2V5.74h71.2Z"/><path class="cls-2" d="M370.25,0H299a4.19,4.19,0,0,0-.5,0h-.16L298,.1l-.14,0-.44.12-.2.06-.28.11-.19.07-.41.2-.12.07L296,.89l0,0c-.19.13-.37.25-.55.4l0,0a4.47,4.47,0,0,0-.45.42l-.14.15-.3.36-.12.16a5.33,5.33,0,0,0-.31.51l0,0a5.71,5.71,0,0,0-.29.61s0,.08,0,.12a4.91,4.91,0,0,0-.17.5c0,.07,0,.13,0,.19l-.09.48,0,.19c0,.21,0,.43,0,.64V108.47h0a6.56,6.56,0,0,0,2.59,5.22l1.38,1L333,141.51a5.67,5.67,0,0,0,2.47.56,5.74,5.74,0,0,0,4.33-2,5.94,5.94,0,0,0,1.41-4V114.21h29a5.74,5.74,0,0,0,5.74-5.74V5.74A5.74,5.74,0,0,0,370.25,0Zm0,108.47h-6.84V33.6a5.75,5.75,0,0,0-3.28-5.19L312.43,5.74h57.82Z"/><rect class="cls-1" x="299.05" y="5.74" width="71.2" height="102.73"/><path class="cls-2" d="M364.67,102.89h-60V11.33h60Z"/><rect class="cls-1" x="338.04" y="42.56" width="4.8" height="39.8" rx="2.4" transform="translate(-3.02 105.27) rotate(-17.5)"/><path class="cls-1" d="M348,56.27,334.71,48.2a4,4,0,0,1,0-6.88L348,33.25a4,4,0,0,1,6.11,3.44V52.83A4,4,0,0,1,348,56.27Z"/><rect class="cls-1" x="308.22" y="60.06" width="39.8" height="4.8" rx="2.4" transform="translate(169.88 356.61) rotate(-72.5)"/><path class="cls-1" d="M320.54,56.27l13.31-8.07a4,4,0,0,0,0-6.88l-13.31-8.07a4,4,0,0,0-6.11,3.44V52.83A4,4,0,0,0,320.54,56.27Z"/><rect class="cls-1" x="302.49" y="41.78" width="64.33" height="8.27"/></g></g></svg>