<svg fill="none" height="96" viewBox="0 0 206 96" width="206" xmlns="http://www.w3.org/2000/svg" xmlns:xlink="http://www.w3.org/1999/xlink"><linearGradient id="a" gradientUnits="userSpaceOnUse" x1="45.4103" x2="109.835" y1="48" y2="137.27"><stop offset="0" stop-color="#fff500"/><stop offset="1" stop-color="#faae1b"/></linearGradient><linearGradient id="b" gradientUnits="userSpaceOnUse" x1="-27.5496" x2="36.8753" y1="48" y2="137.27"><stop offset="0" stop-color="#3ca6f9"/><stop offset="1" stop-color="#486ef0"/></linearGradient><linearGradient id="c" gradientUnits="userSpaceOnUse" x1="102.564" x2="102.564" y1="29.6855" y2="72.7864"><stop offset="0" stop-color="#fff" stop-opacity="0"/><stop offset="1" stop-color="#fff"/></linearGradient><path d="m196.919 51.647.001.0014-35.489 35.4891c-5.804 5.804-13.388 8.7435-20.995 8.8185-8.241.4446-16.63-2.4807-22.925-8.776l-35.4895-35.4891.0013-.0013c-.0813-.0795-.1622-.1596-.2428-.2402-11.76-11.76-11.76-30.8268 0-42.58685 11.7601-11.76004 30.827-11.76004 42.587 0 .081.08059.161.16153.24.2428l.001-.00135 14.841 14.8411 14.884-14.88362.001.00135c.08-.08127.16-.16221.241-.2428 11.76-11.76004 30.826-11.76004 42.586 0 11.76 11.76007 11.76 30.82687 0 42.58687-.08.0806-.161.1607-.242.2401z" fill="url(#a)"/><path d="m123.959 51.647.001.0014-35.4892 35.4891c-5.804 5.804-13.3878 8.7435-20.9946 8.8185-8.2412.4446-16.6304-2.4807-22.9256-8.776l-35.48912-35.4891.00134-.0014c-.08127-.0794-.1622-.1595-.24279-.2401-11.76004-11.76-11.76004-30.8268 0-42.58685 11.76007-11.76004 30.82687-11.76004 42.58687 0 .0806.08059.1607.16152.2401.24279l.0014-.00134 14.841 14.8411 14.8836-14.88362.0014.00134c.0795-.08127.1595-.1622.2401-.24279 11.76-11.76004 30.8265-11.76004 42.5865 0 11.76 11.76007 11.76 30.82687 0 42.58687-.08.0806-.161.1607-.242.2401z" fill="url(#b)"/><path d="m123.96 51.6484-.001-.0014c.081-.0795.162-.1595.242-.2401 11.76-11.76 11.76-30.8268 0-42.58687-3.929-3.92976-8.675-6.54635-13.691-7.849754-9.952-2.525566-20.9429.105194-28.73 7.892274-11.76 11.76005-11.76 30.82685 0 42.58685.0806.0806.1615.1607.2428.2402l-.0013.0013 20.9475 20.9479z" fill="url(#c)" opacity=".4"/></svg>